<?xml version="1.0" standalone="no"?>
<!DOCTYPE svg PUBLIC "-//W3C//DTD SVG 20010904//EN"
 "http://www.w3.org/TR/2001/REC-SVG-20010904/DTD/svg10.dtd">
<svg version="1.0" xmlns="http://www.w3.org/2000/svg"
 width="500.000000pt" height="500.000000pt" viewBox="0 0 500.000000 500.000000"
 preserveAspectRatio="xMidYMid meet">
<metadata>
Created by potrace 1.11, written by Peter Selinger 2001-2013
</metadata>
<g transform="translate(0.000000,500.000000) scale(0.100000,-0.100000)"
fill="#000000" stroke="none">
<path d="M1530 3643 c0 -3 170 -521 377 -1150 l377 -1143 191 2 190 3 337 950
c305 858 468 1325 468 1340 0 3 -105 5 -234 5 -215 0 -235 -1 -240 -17 -186
-623 -482 -1600 -494 -1635 l-18 -47 -214 712 c-117 392 -233 774 -258 850
l-44 137 -219 0 c-121 0 -219 -3 -219 -7z"/>
</g>
</svg>
